<svg xmlns="http://www.w3.org/2000/svg" width="1317.25" height="362">
<defs><marker id="arrow-filled" refX="6" refY="3" markerWidth="6" markerHeight="6" orient="auto"><path d="M0,0 6,3 0,6z" style="stroke: none; fill: black;"></path></marker><marker id="arrow-open" refX="6" refY="3" markerWidth="6" markerHeight="6" orient="auto"><path d="M0,0 6,3 0,6" style="stroke-width: 1; fill: none; stroke: black;"></path></marker></defs><rect width="156" height="56" style="stroke-width: 1; fill: none; stroke: black;" x="10" y="20"></rect><g><text fill="black" font-family="Helvetica,sans-Serif" x="88" y="39" style="text-anchor: middle; alignment-baseline: central;">KT Cloud Biz 스토어</text><text fill="black" font-family="Helvetica,sans-Serif" x="88" y="57" style="text-anchor: middle; alignment-baseline: central;">Web</text></g><rect width="156" height="56" style="stroke-width: 1; fill: none; stroke: black;" x="10" y="286"></rect><g><text fill="black" font-family="Helvetica,sans-Serif" x="88" y="305" style="text-anchor: middle; alignment-baseline: central;">KT Cloud Biz 스토어</text><text fill="black" font-family="Helvetica,sans-Serif" x="88" y="323" style="text-anchor: middle; alignment-baseline: central;">Web</text></g><path d="M88,76 v210" style="stroke-width: 1; fill: none; stroke: black;"></path><rect width="96.5" height="56" style="stroke-width: 1; fill: none; stroke: black;" x="666.25" y="20"></rect><g><text fill="black" font-family="Helvetica,sans-Serif" x="714.5" y="48" style="text-anchor: middle; alignment-baseline: central;">연동 대상 시스템</text></g><rect width="96.5" height="56" style="stroke-width: 1; fill: none; stroke: black;" x="666.25" y="286"></rect><g><text fill="black" font-family="Helvetica,sans-Serif" x="714.5" y="314" style="text-anchor: middle; alignment-baseline: central;">연동 대상 시스템</text></g><path d="M714.5,76 v210" style="stroke-width: 1; fill: none; stroke: black;"></path><g><text fill="black" font-family="Helvetica,sans-Serif" x="406.25" y="105" style="text-anchor: middle; alignment-baseline: central;">JWT 규격에 맞는 데이터 Header, Payload, Verify signature(private key로 암호화) 생성</text></g><path d="M88,91 C128,91 128,124 88,124" style="stroke-width: 1; fill: none; stroke: black;" marker-end="url(#arrow-filled)"></path><g><text fill="black" font-family="Helvetica,sans-Serif" x="401.25" y="139" style="text-anchor: middle; alignment-baseline: central;">API 요청시 Token 전달</text></g><path d="M88,152 h626.5" style="stroke-width: 1; fill: none; stroke: black;" marker-end="url(#arrow-filled)"></path><g><text fill="black" font-family="Helvetica,sans-Serif" x="981.75" y="181" style="text-anchor: middle; alignment-baseline: central;">수신한 토큰에 대하여 내용 확인 후 Verify signature 복호화(public key로 복호화)</text></g><path d="M714.5,167 C754.5,167 754.5,200 714.5,200" style="stroke-width: 1; fill: none; stroke: black;" marker-end="url(#arrow-filled)"></path><g><text fill="black" font-family="Helvetica,sans-Serif" x="841.5" y="219" style="text-anchor: middle; alignment-baseline: central;">복호화 내용의 발신 시각이 1분 내인지 확인</text></g><path d="M714.5,205 C754.5,205 754.5,238 714.5,238" style="stroke-width: 1; fill: none; stroke: black;" marker-end="url(#arrow-filled)"></path><g><text fill="black" font-family="Helvetica,sans-Serif" x="401.25" y="253" style="text-anchor: middle; alignment-baseline: central;">응답</text></g><path d="M714.5,266 h-626.5" style="stroke-width: 1; fill: none; stroke: black;" marker-end="url(#arrow-filled)"></path></svg>